<?xml version="1.0" encoding="UTF-8"?><svg id="a" xmlns="http://www.w3.org/2000/svg" width="30" height="30" viewBox="0 0 30 30"><path d="M11.1,10.6l-.4,.3c-.8,.7-1.5,.9-2.3,.8-.7-.1-1.5-.7-2.4-1.7s-.9-1.3-.9-1.7c0-.4,.4-1,1-1.5l.4-.4c.3,.8,.7,1.5,1.2,2,.9,1,1.9,1.7,3.3,2.2Zm11.1,13.8l-.5,.4c-.6,.5-1.1,.7-1.5,.7s-1-.4-1.5-1.1c-1.6-1.9-1.7-3.4-.4-4.6l.4-.4c.3,1.3,.9,2.5,1.8,3.6s1.1,1.1,1.7,1.5Zm2.5-4c-.4,1.3-1.1,2.5-2.1,3.6-.6-.5-1.1-1-1.6-1.5-.8-.9-1.4-2.1-1.8-3.6l.2-.2c1-.8,.2-2.7-2.3-5.6s-4.3-4.1-5.3-3.2l-.2,.2c-1.4-.5-2.6-1.2-3.4-2.2s-.9-1.2-1.1-1.9c1.2-.7,2.5-1.2,3.9-1.5,1.5,.8,2.9,1.8,4.3,2.9,1.4,1.1,2.7,2.4,3.9,3.8s2.4,3,3.3,4.5c.9,1.5,1.7,3.1,2.2,4.7Z" style="fill:#231f20;"/><path d="M15,1c7.7,0,14,6.3,14,14s-6.3,14-14,14S1,22.7,1,15,7.3,1,15,1m0-1C6.7,0,0,6.7,0,15s6.7,15,15,15,15-6.7,15-15S23.3,0,15,0h0Z" style="fill:#231f20;"/></svg>
