<?xml version="1.0" encoding="UTF-8"?><svg id="a" xmlns="http://www.w3.org/2000/svg" width="31.7" height="31.1" viewBox="0 0 31.7 31.1"><rect y="0" width="31.7" height="31.1" style="fill:#231f20;"/><g><line x1="19.3" y1="19.1" x2="30.3" y2="29.7" style="fill:none; stroke:#fff; stroke-miterlimit:10; stroke-width:4px;"/><path d="M11.4,1h0c2.7,0,5.3,1,7.2,2.9,2,1.9,3.1,4.5,3.2,7.3,0,2.8-1,5.4-2.9,7.4-2,2-4.6,3.2-7.5,3.2s-5.3-1-7.2-2.9c-2-1.9-3.1-4.5-3.2-7.3,0-2.8,1-5.4,2.9-7.4,2-2,4.6-3.2,7.5-3.2M11.4,0C8.4,0,5.4,1.2,3.2,3.5-1.2,8-1.1,15.2,3.5,19.6c2.2,2.1,5.1,3.2,7.9,3.2s6-1.2,8.2-3.5c4.4-4.5,4.3-11.7-.3-16.1C17.1,1.1,14.3,0,11.4,0h0Z" style="fill:#fff;"/></g></svg>