<?xml version="1.0" encoding="UTF-8"?><svg id="a" xmlns="http://www.w3.org/2000/svg" width="31.7" height="31.1" viewBox="0 0 31.7 31.1"><path d="M11.4,1h0c2.7,0,5.3,1,7.2,2.9,4.1,4,4.2,10.6,.2,14.7-2,2-4.6,3.2-7.5,3.2s-5.3-1-7.2-2.9C0,14.9,0,8.3,3.9,4.2c2-2,4.6-3.2,7.5-3.2M11.4,0C8.4,0,5.4,1.2,3.2,3.5-1.2,8-1.1,15.2,3.5,19.6c2.2,2.1,5.1,3.2,7.9,3.2s6-1.2,8.2-3.5c4.4-4.5,4.3-11.7-.3-16.1C17.1,1.1,14.3,0,11.4,0h0Z" style="fill:#231f20;"/><line x1="19.6" y1="19.3" x2="30.3" y2="29.7" style="fill:none; stroke:#231f20; stroke-miterlimit:10; stroke-width:4px;"/></svg>